#!OML:ASF E:\acrobat2\Project_11_07_03\Capture day 1\Session 1\Acrobat.ASF
:FULLY-SPECIFIED
:DEGREES
193
root 8.25712 15.7142 1.03141 54.2923 -42.4965 -23.0153
lowerback 16.5231 4.0952 5.67561
upperback 8.29384 5.68904 -3.4772
thorax 0.621183 2.97541 -7.75722
lowerneck -9.78468 1.5336 10.5871
upperneck 4.40093 1.2064 -7.47413
head 3.00629 0.474121 -3.93282
rclavicle 5.725e-014 -9.93923e-015
rhumerus 32.4537 32.9648 -79.867
rradius 42.5663
rwrist 34.9212
rhand -28.2606 -40.7878
rfingers 7.12502
rthumb -1.63763 -70.7613
lclavicle 5.725e-014 -9.93923e-015
lhumerus -16.5698 -16.0247 72.4579
lradius 68.8615
lwrist 19.6058
lhand -16.8499 -20.1634
lfingers 7.12502
lthumb 9.38021 9.60793
rfemur -35.5225 -5.56408 28.1109
rtibia 34.7687
rfoot 6.74278 -30.7895
rtoes -67.7018
lfemur -86.2805 14.2914 -13.7151
ltibia 76.0149
lfoot -13.882 -4.07592
ltoes 29.8837
194
root 8.16986 16.071 1.33087 61.1886 -40.5238 -24.731
lowerback 15.5825 3.98667 3.30264
upperback 8.17017 5.1801 -4.48628
thorax 0.746226 2.66664 -7.35555
lowerneck -9.52546 1.51896 8.76928
upperneck 1.73999 1.17078 -3.87313
head 2.35 0.539955 -2.7848
rclavicle -2.70347e-014 -1.03368e-014
rhumerus 23.1468 21.6011 -86.1865
rradius 48.0909
rwrist 72.0946
rhand 27.6244 -14.5398
rfingers 7.12502
rthumb 51.5591 -34.9038
lclavicle -2.70347e-014 -1.03368e-014
lhumerus -0.902439 -22.2634 62.601
lradius 73.191
lwrist 19.8377
lhand -20.235 -22.0046
lfingers 7.12502
lthumb 6.11296 7.88725
rfemur -36.8897 -6.79298 29.6253
rtibia 27.6142
rfoot -4.52386 -19.8983
rtoes -68.4681
lfemur -90.6698 16.7999 -14.487
ltibia 72.8383
lfoot -11.6064 -5.202
ltoes 33.4119
195
root 8.03019 16.468 1.72891 68.2866 -37.7633 -27.7199
lowerback 15.2327 3.63206 1.23878
upperback 7.77943 4.43602 -5.0101
thorax 0.26189 2.21916 -6.63415
lowerneck -5.50091 1.27628 2.47243
upperneck -2.62362 1.563 1.05937
head 0.107487 0.764551 -0.0547916
rclavicle -8.74653e-014 1.32391e-013
rhumerus 16.201 7.85205 -93.506
rradius 40.8646
rwrist 68.8626
rhand 28.076 -12.3999
rfingers 7.12502
rthumb 51.9691 -32.5238
lclavicle -8.74653e-014 1.32391e-013
lhumerus 16.5821 -22.6537 46.9827
lradius 77.7992
lwrist 24.4489
lhand -17.1907 -20.8598
lfingers 7.12502
lthumb 9.05136 8.92602
rfemur -33.4276 -5.04652 29.7438
rtibia 15.2499
rfoot -12.2121 -4.10662
rtoes -69.1423
lfemur -93.0573 20.1991 -13.7545
ltibia 68.0768
lfoot -8.70321 -5.81013
ltoes 35.3982
196
root 7.85934 16.7836 2.20512 74.5183 -34.0891 -30.7047
lowerback 14.3957 3.08658 0.389938
upperback 7.47212 3.65073 -5.06759
thorax 0.220169 1.80422 -6.0586
lowerneck -5.32016 2.28888 -0.446523
upperneck -5.95422 3.17077 2.21924
head -0.994845 1.58406 0.773909
rclavicle 7.31528e-014 -6.52014e-014
rhumerus 8.36297 2.47815 -94.8124
rradius 22.5577
rwrist 27.4491
rhand -11.7667 -15.7933
rfingers 7.12502
rthumb 14.2818 -45.2822
lclavicle 7.31528e-014 -6.52014e-014
lhumerus 29.2982 -18.8612 33.4026
lradius 80.2183
lwrist 25.0903
lhand -21.0538 -26.3202
lfingers 7.12502
lthumb 5.32245 3.59299
rfemur -31.419 -13.5934 33.2166
rtibia 16.8397
rfoot -26.1548 2.85602
rtoes -64.6979
lfemur -94.3441 23.4395 -11.6321
ltibia 63.5003
lfoot -5.87843 -6.61837
ltoes 36.7222
197
root 7.68149 17.0046 2.67398 79.0637 -30.1286 -33.2572
lowerback 13.5498 2.47589 -0.460454
upperback 6.87416 2.82049 -4.55427
thorax -0.133718 1.36169 -4.88522
lowerneck -5.74709 3.4485 -3.06842
upperneck -6.55303 4.9064 2.44724
head -1.21845 2.52638 1.29916
rclavicle -4.77083e-014 1.47101e-014
rhumerus 3.69687 74.1614 -76.5312
rradius 29.9063
rwrist -73.3594
rhand -36.6705 -3.12905
rfingers 7.12502
rthumb -9.75675 -32.883
lclavicle -4.77083e-014 1.47101e-014
lhumerus 32.558 -13.8995 29.4713
lradius 78.7743
lwrist 29.9857
lhand -21.0538 -26.3202
lfingers 7.12502
lthumb 5.32245 3.59299
rfemur -27.0776 -21.9994 34.4595
rtibia 18.611
rfoot -44.3476 0.69216
rtoes -61.9545
lfemur -94.1506 26.635 -8.23817
ltibia 59.4865
lfoot -4.01237 -7.32273
ltoes 35.475
198
root 7.53262 17.1509 3.144 82.0839 -27.7593 -36.2223
lowerback 13.5671 3.28863 -1.0963
upperback 6.30986 3.79694 -3.98713
thorax -0.743502 1.80916 -4.0731
lowerneck -6.42681 3.83163 -6.91525
upperneck -4.40632 5.62904 1.50669
head -0.542471 2.95041 1.70651
rclavicle 6.04305e-014 2.70347e-014
rhumerus -4.73158 129.228 -72.3853
rradius 36.6063
rwrist -125.508
rhand -37.2209 11.4988
rfingers 7.12502
rthumb -10.2877 -18.2296
lclavicle 6.04305e-014 2.70347e-014
lhumerus 37.0126 -8.59833 29.1069
lradius 77.5234
lwrist 25.9884
lhand -28.0144 -26.5562
lfingers 7.12502
lthumb -1.39983 3.419
rfemur -15.8237 -16.2806 28.6779
rtibia 15.5964
rfoot -47.8136 -16.3849
rtoes -62.525
lfemur -91.6662 29.4119 -4.79845
ltibia 56.4927
lfoot -5.21554 -7.37088
ltoes 39.3598
199
root 7.4968 17.2171 3.62089 85.1282 -26.0853 -38.8772
lowerback 12.7422 3.20077 -0.678504
upperback 5.67687 3.77171 -3.87593
thorax -0.949156 1.80733 -4.15715
lowerneck -5.3671 5.36528 -8.59782
upperneck -4.11255 7.63139 -0.97989
head -0.683152 3.97206 1.17552
rclavicle 6.36111e-015 1.03318e-013
rhumerus 5.60892 157.068 -69.1042
rradius 18.3596
rwrist -151.32
rhand -18.8421 -34.2942
rfingers 7.12502
rthumb 7.45754 -64.1428
lclavicle 6.36111e-015 1.03318e-013
lhumerus 36.572 -6.3375 27.3346
lradius 73.0645
lwrist 18.4112
lhand -27.583 -30.6228
lfingers 7.12502
lthumb -0.983147 -0.645339
rfemur -8.64134 -11.4018 21.6743
rtibia 20.2431
rfoot -58.1677 -44.9161
rtoes -68.3512
lfemur -88.2455 30.0439 -0.361995
ltibia 53.2831
lfoot -8.73413 -5.66337
ltoes 40.7261
200
root 7.46824 17.2606 4.07458 87.7046 -24.4937 -41.2016
lowerback 11.3199 2.5214 0.47773
upperback 5.11454 3.07247 -3.94856
thorax -0.747056 1.49575 -4.73744
lowerneck -6.29779 6.62463 -10.4364
upperneck -0.867736 9.59623 -1.34762
head 0.343743 4.81761 1.48272
rclavicle -3.18055e-015 5.76972e-014
rhumerus -30.8718 -0.408383 -67.8314
rradius 16.0698
rwrist 2.72006
rhand -3.37033 -42.4784
rfingers 7.12502
rthumb 22.3585 -71.2046
lclavicle -3.18055e-015 5.76972e-014
lhumerus 33.7277 -5.80272 26.0842
lradius 68.3223
lwrist 21.3009
lhand -22.3138 -34.9849
lfingers 7.12502
lthumb 4.10577 -5.04472
rfemur -1.86252 -9.5727 15.3553
rtibia 24.6345
rfoot -52.4117 -45.3164
rtoes -67.2021
lfemur -84.0052 29.6695 4.99812
ltibia 50.0043
lfoot -12.7921 -3.25974
ltoes 40.8729
201
root 7.41853 17.349 4.48187 90.7206 -22.8934 -44.1283
lowerback 9.07846 2.10326 1.68396
upperback 4.52477 2.68327 -4.22458
thorax -0.0959313 1.34506 -5.58008
lowerneck -7.86563 7.10764 -9.16165
upperneck 2.87145 10.4513 -1.94644
head 1.87462 5.02738 1.30091
rclavicle 7.63333e-014 -8.82852e-014
rhumerus -47.3319 16.7422 -69.7032
rradius 34.6742
rwrist -24.7785
rhand -8.44788 -49.1415
rfingers 7.12502
rthumb 17.4779 -78.3758
lclavicle 7.63333e-014 -8.82852e-014
lhumerus 28.7792 -5.8611 23.7484
lradius 62.6596
lwrist 23.3577
lhand -11.4105 -37.4173
lfingers 7.12502
lthumb 14.625 -7.95299
rfemur 4.48349 -8.39497 9.30888
rtibia 26.1783
rfoot -30.8282 -41.976
rtoes -63.0884
lfemur -79.1875 29.8491 10.9909
ltibia 46.2666
lfoot -16.1752 -0.106717
ltoes 39.2304
